<?xml version="1.0" encoding="UTF-8"?>
<svg id="Layer_1" xmlns="http://www.w3.org/2000/svg" version="1.1" viewBox="0 0 660.39 300.45">
  <!-- Generator: Adobe Illustrator 29.8.3, SVG Export Plug-In . SVG Version: 2.1.1 Build 3)  -->
  <path d="M500.77,103.57c19.71-4.83,53.66-12.98,55,17l33.99-8-1.12,18.87-18.73,5.27.87,12.86,22.56-4.93,1.53-39.98c14.65-2.8,31.47-9.75,45.43-1.11,16.82,10.41,12.45,39.33-3.52,48.03,13.73,10.79,6.32,30.81,7.9,45.89l-17.89,4.09c1.57-14.22,8.38-44.42-16.07-36.38l-1.07,35.25-16.87,5.13v-13s-34.07,4.57-34.07,4.57l-6.94-54.57-8.99,8.5c14.37,9.26,7.65,30.41,7.86,44.86l-17.39,2.69c.09-12.95,8.12-39.67-13.83-36.91l-3.08,36.92-15.56,4.94v-5s-9,3-9,3l-5.02-17.49-24.86-3.37-5.1,14.44-8.03-1.58v5.01c-22.54,3.9-47.18-1.14-58.02-23l-.19,19.66-17.8,1.34v-6c-57.39,18.03-85.54-53.37-41.02-88.53,9.75-7.7,22.5-9.47,34.58-6.53,5.13,1.25,13.18,6.57,13.18,6.57,0,0-5.9,11.43-7.75,16.49-3.11-1.72-6.78-3.4-8.45-4.04-14.2-5.47-29.03,5.01-33.58,18.5-9.56,28.39,13.71,49.54,41.01,38.56l2.02,5.98c.78-19.08-1.62-38-3.87-56.87l16.82-4.09,1.55,11.96c9.38-19.91,25.6-34.37,48.99-31.98,12.36,1.26,21.14,11.03,23.37,22.81l-14.36,11.15s-1.26-4.38-2.27-6.7c-7.23-16.56-29.7-6.28-36.43,6.02-11.33,20.72-3.96,50.92,23.21,50.71v-14h-15l2.93-17.57c9.06-.66,18.3-1.04,27-4.04,0,0,3.05,23.89,4.06,23.6l16.92-56.36,18.52-4.68c5.26,17.06,8.74,34.76,14.46,51.69.53,1.56-.89,2.85,2.11,2.35v-58ZM532.44,138.24c4.21-4.18,5.18-10.41,4.27-16.11-1.34-8.4-13.17-5.85-18.8-3.42l-.67,25.91c1.47,2.55,13.55-4.74,15.2-6.38ZM610.77,146.57c8.79-1.27,22.52-10.65,22.06-20.49-.52-11.21-15.01-9.74-22.06-6.01v26.5ZM480.77,164.56c-1.39-6.09-2.21-13.55-4.09-19.4-.36-1.11-.33-2.42-1.89-2.59-.16,3.23-7.27,19.77-6.02,21l12,1ZM593.77,162.57l-21.97,4.04,2.11,10.83,19.86-1.37c.37-3.6.1-10.44,0-13.5Z"/>
  <path d="M8.77,91.57l53.01-6.55-.94,17.12-35.06,4.44-1,24.99,24.86-4.14,4.62-20.88,14.94-3.87,20.59,48.88,2.12-53.36c9.06-4.93,22.82-7.68,33.35-6.63,27.54,2.75,27.25,37.27,8.53,51.49,3.13,2.89,6.27,6.06,7,10.49l18.56-51.86,16.24,2.05,9.17,25.81c3.94-28.64,41.66-31.37,58-10.99-.28-13.58,7.34-27.64,21.77-29.74,21.46-3.13,35.99,11.44,31.75,32.75-1.46,2.47-15.01,3.21-18.51,3.98-1.03-.94,7.06-12.19-.48-18.02-10.68-8.25-23.44,6.19-14.34,19.34s26.57,17.85,27.73,37.33c1.66,28.03-25.83,38.74-45.82,20.69l10.34-13.83,4.24,3.32c8.85,5.07,15.2-.18,13.1-10.11-1.61-7.6-12.52-14.41-17.76-19.72,3.72,33.42-24.56,50.86-53,33,.73,2,1.64,3.93,1.64,3.93l-14.87,10.79s-5.11-12.8-7.95-18.55l-26.67-1.01-6.3,16.69s-15.18,1.75-23.85,3.14c.42-13.28,8.03-41.83-14.37-37.85l-1.64,2.36-.51,32.57-13.99,6.95s-.65-4.83-1.5-7.02l-3.48.05c-1.78-3.23-6.21-19.28-9.12-19.82l-22.41,3.25c-.95,4.24-4.17,13.83-4.17,13.83-4.6.02-11.99.82-15.95,1.4l7.66-41.7-18.39,4.12-.13,39.87-17.01,3v-102ZM108.77,137.57c10.96-.82,24.79-13.9,18.87-25.37-4.06-7.87-13.05-4.49-18.87-2.63v28ZM213.54,122.76c-13.58,1.89-14.59,18.74-10.56,29.1,8.03,20.62,38.63,23.8,34.71-5.71-1.43-10.77-12.19-25.05-24.15-23.39ZM172.77,154.57l-6.99-20.99-6.01,21.99,13-1ZM72.43,153.05l-1.34-3.29-6.3-15.18-5.01,19.99,12.65-1.52Z"/>
  <path d="M313.77,179.57l20.86,18.71-.86,46.3c29.87-2.59,55.75-20.02,71.67-44.9l19.36,4.45c-17.52,34.92-51.83,56.75-90.98,59.5l-.19,24.81-21.85,6.14s1.02-20.27.86-30.86c-42.59-5.01-79.19-34.07-93.86-74.13l20.05-1.53c13.62,30.38,42,51.65,74.95,56.53v-65Z"/>
  <path d="M313.77,53.57c-14.69,1.77-27.61,7.65-40.32,15.18-14.66,8.69-27.21,22.22-34.81,38.37l-15.88-5.56s4.33-12.12,15.98-27.52c17.41-23.02,45.8-37.98,75.09-39.91,0-3.59.93-16.75.93-21.56,4.81-.96,20.01-3.52,20.01-3.52,0,0-.71,16.46.12,24.39,30.13,4.45,58.63,18.82,78.39,42.12,1.43,1.69,10.8,15.03,10.8,15.03,0,0-11.47,1.02-19.6,8.23-13.73-24.91-42.06-43.75-70.72-45.24v40.5c-15.1,8.22-20,19.44-20,19.44v-59.94Z"/>
</svg>