<?xml version="1.0" encoding="UTF-8"?>
<svg id="Layer_1" xmlns="http://www.w3.org/2000/svg" version="1.1" viewBox="0 0 642.23 499.08">
  <!-- Generator: Adobe Illustrator 29.8.3, SVG Export Plug-In . SVG Version: 2.1.1 Build 3)  -->
  <defs>
    <style>
      .st0 {
        fill: #fff;
      }
    </style>
  </defs>
  <path d="M435.66,9.37l1.02-6.41c5.54-2.21,5.63,9.79,8.55,13.36,3.43,4.2,14.61,8.96,17.95,15.05,1.89.05.7-12.07,3.48-9,4.85,16.11,10.88,32.73-.61,47.49.08,2.15,9.51,9.67,10.85,13.78,1.63,4.99.27,10.63,1.86,16.14.68,2.38,2.45,3.68,2.86,6.14.33,2,.41,7.98-.14,9.76-.8,2.64-5.1,2.46-4.81,5.68l36.42-3c4.92,1.42,7.18,5.53,7.52,10.39l-38.94,10.62.89,6.32c-.91,2.74-7.91,2.9-6.87,5.16.81,1.77,2.64,1.54,4.23,1.33,6.02-.8,14.68-6.37,20.95-8.13,14.92-4.19,32.95-4.33,48.36-6.43,2.7.47,1.95,10.62-1.54,12.25-14.89,1.32-28.54,7.52-42.8,11.2-5.57,1.44-20.42,2.78-24.19,4.81-1.5.8-1.79,2.98-3.08,3.92-2.15,1.58-6.34,1.22-8.42,3.58-2.35,2.68-4.08,11.61-7.7,14.83-7.16-.36-15.96-5.86-23.14-3.67-2.27.69-8.39,11.66-8.2,13.9,4.28,8.32,4.71,21.68,8.47,29.45,8.12,16.79,28.37,36.21,37.81,53.19-1.33,4.31,3.88,22.97,1.28,24.8l-21.41,5.23c-5.63-5.09-9.66-9.83-9.63-17.77l-5.54,4.02c-3.34-1.5-15.25-1.48-16.96-3.01-1.03-.92-5.73-9.88-5.36-11.31,7.72-9.16,11.23-21.78,15.88-32.7,1.7-.33,2.06.38,2.74,1.74,3.5,7.03-5.13,21.36-5.74,29.26l13.01-21.41-32.52-44.58-2.63,29.38c-1.3,2.41-2.59-.72-3.38,2.54-1.23,5.12-1.23,11.73-2.49,17.06-1.17,1.22-7.27-5.91-8.52-6.97-8.82-7.4-18.67-13.86-29.46-18.08l.4-12.06-22.82-6.76c-3.17.75-3.94,13.71-7.15,8.89-1.09-1.64,1.52-8.8,1.25-11.39-.14-1.29-1.55-2.61-1.65-4.18-.36-5.83.32-11.66-1.06-17.44l-39.83,17.16c.15,12.49,4.83,18.11-11.16,19.84l2.24-49.25c4.36-9.7,17.43-21.72,20.98-31.02,1.59-4.18,2.09-7.05-2.79-7.63-4.4-.52-8.85.29-13.77-.26-10.35-1.15-20.57-5.3-31.12-5.88-3.67-.2-17.47-.93-17.52,4.51-.03,3.45,6.9,14.7,7.75,19.26.58,3.1,1.02,9.36,1.22,12.78,1.49,25.19.68,51.75-3.03,76.7-18.37,12.61-31.46,30.9-41.95,50.3-7.42.9-14.42,3.22-20.51,7.49-2.44,1.71-3.81,5.71-7.45,4.95-.94-3.88-3.96-8.31-3.97-12.33-.04-17.69,7.19-40.43,7.19-58.85,8.24-19.39,15.6-41.51,24.66-60.34,3.84-7.99,3.83,3.64,4.19,5.94,2.32,14.73,6.14,29.19,7.87,44.03l-23.99,52.59,8.39-5.1c8.61-18.46,21.74-34.63,28.62-53.89,1.99-.28,1.64-.18,2.24,1.23,1.38,3.24,1.04,16.05.73,20.25-.25,3.41-2.02,6.51-2.02,10,0,1.98.1,1.61,2.02,1.51.56-4.54,5.35-8.12,5.68-12.62.82-10.97-6.83-26.41-6.75-36.87.17-21.37,13.9-43.83,1.49-64.57-4.76-.83-17.18,15.81-21.39,19.58-11.85,10.62-31.35,21.42-41.55,32.45-8.5,9.19-13.39,26.28-21.97,36.03l2.5-16.99-8.05,2.44-21.94,43.06c6.01.09,11.39-4.84,17.48-4.57,5.05.23,9.59,5.89,14.51,7.05l-4.01-29.48,2.5-.54c16.69,16.63,26.61,42.18,20.55,65.61l-17.07-2.06c-2.27-5.99-6.38-9.74-10.96-14.04s-13.3-12.39-19.64-12.39c-2.02,0-10.15,2.9-11.76,4.02-3.19,2.21-5.47,12.15-7.6,13.4-1.68.98-5.82.5-8,1.49,10.33-27.53,28.57-50.94,43.45-76.04,22.61-20.02,47.37-38.14,70.55-57.45,5.43-4.52,17.45-21.09,22.7-22.3,25.09-5.81,51.46,9.38,75.77,4.77,3.73-.71,4.37-4.89,6.3-5.95,6.67-3.7,19.12-2.81,24.05-9.69,2.88-4.01,17.66-28.77,18.71-32.29,1.79-5.95-1.25-11.34-.34-16.29.77-4.17,14.84-32.42,17.79-35.26,7.38-7.12,26.33-5.68,35.86-4.64,3.41-6.24,5.28-13.13-.84-18.35l3.97-1.51c-.79-1.93-2.86-.4-2-3.98h6.01s-2-12-2-12c2.35-2.3,15.7,6.77,17.98,9ZM438.66,17.37c-5.58-4.13-8.33-11.59-15.98-12.99,1.73,3.64,1.21,9.03,2.21,12.28.5,1.61,2.62,2.67,3.33,4.67.39,1.11,1.52,7.54,1.43,8.51-.18,1.96-8.08,15.14-11.39,14.57-3.4-5.72-5.85-2.06-9.05-1.96s-10.36-3-15.01-3.13c-10.79-.32-12.92,1.49-17.9,10.18-2.9,5.05-13.28,25.3-10.18,29.93,2.44,2.4,12.83-3.21,11.6,3.41-.15.82-6.44,3.26-7.6,4.48-2.78,2.89-8,32.61-9.15,38.85-4.66,25.15-7.04,50.72-12.32,75.76-.73,2.42,2.73,10.55,4.54,11.44s1.5-1.41,1.75-2.2c8.43-26.42,14.63-53.53,24.71-79.42.38-5.19-8.62-11.56-9.75-17.1-1.29-6.3-.64-22.7,3.82-27.72,1.29-1.45,7.79-4.19,9.69-4.35,6.4-.51,9.7,5.23,13.24,9.29-2.23,2.23-6.26,6.39-8.02,8.96-1.44,2.11-.8,6.17-4.35,6.48-6.87-5.22.69-7.89,2.38-12.94l-4.99,1.99-.5-5.99c-2.71,4.96-4.55,12.4-1.46,17.48l-2.04,1.5c5.43,2.19,6.13,4.04,11.99,1.02l-3.51,39.01c.91,1.07,1.24,1.36,2.54.51,3.77-2.46,10.79-19.61,13.99-24.08-3.37-7.27-2.79-14.02-3.86-21.74l13.71-14.41c-.06-3.44-2.52-5.19-2.91-8.83-.47-4.36-.5-15.81,0-20.01.13-1.11,0-2.22.99-3.02,2.21-1.61,9.26,3.26,10.89,5.23l1.17,19.33,6.51-2.71c5.36,2.94,9.82,10.43,15.99,10.73,3.06.15.88-5.38,1.5-7.01,2.2-2.54,5.43,8.4,2.45,12.95-2.55,3.89-5.9,3.23-8.81,5.18-2.07,1.39-7.14,6.79-9.12,6.85-1.81.22-11.27-6.46-9.52-7.98l11-.02c.49-2.33-.3-1.6-1.29-2.23-2.26-1.45-6.82-2.03-6.71-5.75l10.99.5c-4.39-3.07-9.42-6.21-15-5.51.04,3.39.29,6.49-.67,9.83-1.34,4.65-7.88,9.43-8.32,13.76-.4,3.88,3.52,9.14,2.85,11.71-.32,1.22-2.33,2.42-3.06,4-1.97,4.29-9.25,21.86-9.64,25.46-.09.81-.3,1.54.28,2.25.9,1.42,30.38,12.19,31.56,10.99v-5.01c-7.97,1.68-16.5-2.83-17.99-10.99,2.55-.57,2.32,2.15,3.71,3.04,4.88,3.13,10.52,1.54,15.17-1.16,1-1.73-1.65-3.79-1.9-5.47-.4-2.68,3.26-8.2,5.46-9.47,2.78-1.61,6.47.32,6.55-2.43-1.7-1.74-4.05-2.58-5.9-4.1-1.55-1.27-1.44-4.11-4.08-2.94-8.07,3.6-8.49,12.55-11.56,19.53-.54,1.22.05,2.44-1.94,1.99-4.74-1.89-4.33-11.56-2.39-15.36,1.21-2.36,21.01-15.62,22.38-15.61,4.28.04-4.33,5.9-2.5,7.97,4.91-3.05,15.07,3.69,12.55-5.03-1.62-5.58-3.45-10-3.64-16.46-.21-7.26,3.66-5.88,4.15-9.94.75-6.17-1.4-8.62-2-13.14-.85-6.39-.23-13.75-3.62-19.38-1.76-2.93-9.47-8.69-9.46-10.54l7.87-14.96c-1.19-8.34-.87-16.54-3.88-24.54l-2,5.99ZM390.67,96.36c-.18-2.29.48-5.13-.18-7.3-1.47-4.83-13.11-3.94-15.37,1.25-.35.79-1.35,4.28.55,4.05-.27-6.53,9.01-8.5,12.47-3.95,1.36,1.79.53,5.32,2.53,5.95ZM335.68,146.87v21c0,.14,1.14,3.42,2.01,2.01,1.62-1.54,12.29-19.31,13.22-21.79,2.36-6.32,6.46-30.17,6.81-37.21.12-2.4.02-2.5-1.26-.25-6.88,12.11-14.3,23.9-20.77,36.24ZM511.68,121.38c-6.21,1.02-15.78-.59-17.99,6.98,6.16-1.89,14.55-.59,17.99-6.98ZM517.58,127.28c.66-2.53-.4-4.42-2.41-5.89-2.34,1.94-4.1,3.65-3.49,6.98l5.9-1.09ZM492.67,123.37l-14.99,2.98c3.64-.51,4.65,3.7,6.01,4.57,3.39,2.18,9.95-6.66,8.98-7.55ZM466.67,136.36c3.09,1.84,14.73-2.01,14-5.48-4.53-3.84-14.14-.98-14,5.48ZM463.67,130.38c-5.26,1.27-10.86,2.46-13,7.98,7.04.18,11.53-.39,13-7.98ZM449.67,135.38c-5.11.98-10.36,1.96-13,6.98,5.02-1.77,11.06-1.29,13-6.98ZM331.67,137.37c-8.77,2.26-12.5,3.62-16.86,11.63s-14.58,36.37-14.17,44.91c.11,2.22.89,4.26,1.05,6.46,9.83-7.18,19.94-11.55,31.86-14.12l-1.88-48.87ZM363.69,208.37c7.83-7.01,12.56-19.55,19.47-27.02,4.06-4.39,9.34-5.53,13.5-9.48l-16.5-19.49c-1.96-.36-1.22.31-1.7,1.25-2.47,4.85-4.65,14.14-6.28,19.74-3.34,11.5-6.15,23.26-8.49,35ZM342.67,191.37l3-16c-5.19,3.8-11.01,11.94-3,16ZM406.67,237.36c.38-16.99,4.16-37.14-3.49-52.99-.56-1.17-.99-2.75-2.49-3,.65,9.4-6.2,16.82-8.74,25.35l14.72,30.65ZM377.68,211.36c8.02-2.24,7.48-13.22,8.98-19.99l-5.18,9.3-3.8,10.69ZM387.67,217.37c-6.46,2.71-16.15,7.86-13.98,15.99,6.77-3.57,16.03-6.57,13.98-15.99Z"/>
  <path d="M268.55,170.49c.61.39,4.81,11.76,5.04,13.46l2.92,51.83-18.83,9.58,8-75c.9.12,2.24-.27,2.87.13Z"/>
  <path class="st0" d="M442.67,84.36c-.03-3.32.48-8.12-1.57-10.92-1.03-1.41-8.98-6.46-10.42-5.07-2.42,2.33,4.85,5.34,6,6.49,2.09,2.08,2.67,4.79,3.75,7.3.62,1.44-.64,2.74,2.24,2.2Z"/>
  <path d="M442.67,84.36c-2.88.53-1.62-.76-2.24-2.2-1.08-2.51-1.66-5.22-3.75-7.3-1.15-1.15-8.42-4.16-6-6.49,1.44-1.39,9.39,3.65,10.42,5.07,2.05,2.81,1.54,7.6,1.57,10.92Z"/>
  <path d="M492,308.09c19.71-4.83,53.66-12.98,55,17l33.99-8-1.12,18.87-18.73,5.27.87,12.86,22.56-4.93,1.53-39.98c14.65-2.8,31.47-9.75,45.43-1.11,16.82,10.41,12.45,39.33-3.52,48.03,13.73,10.79,6.32,30.81,7.9,45.89l-17.89,4.09c1.57-14.22,8.38-44.42-16.07-36.38l-1.07,35.25-16.87,5.13v-13s-34.07,4.57-34.07,4.57l-6.94-54.57-8.99,8.5c14.37,9.26,7.65,30.41,7.86,44.86l-17.39,2.69c.09-12.95,8.12-39.67-13.83-36.91l-3.08,36.92-15.56,4.94v-5s-9,3-9,3l-5.02-17.49-24.86-3.37-5.1,14.44-8.03-1.58v5.01c-22.54,3.9-47.18-1.14-58.02-23l-.19,19.66-17.8,1.34v-6c-57.39,18.03-85.54-53.37-41.02-88.53,9.75-7.7,22.5-9.47,34.58-6.53,5.13,1.25,13.18,6.57,13.18,6.57,0,0-5.9,11.43-7.75,16.49-3.11-1.72-6.78-3.4-8.45-4.04-14.2-5.47-29.03,5.01-33.58,18.5-9.56,28.39,13.71,49.54,41.01,38.56l2.02,5.98c.78-19.08-1.62-38-3.87-56.87l16.82-4.09,1.55,11.96c9.38-19.91,25.6-34.37,48.99-31.98,12.36,1.26,21.14,11.03,23.37,22.81l-14.36,11.15s-1.26-4.38-2.27-6.7c-7.23-16.56-29.7-6.28-36.43,6.02-11.33,20.72-3.96,50.92,23.21,50.71v-14h-15l2.93-17.57c9.06-.66,18.3-1.04,27-4.04,0,0,3.05,23.89,4.06,23.6l16.92-56.36,18.52-4.68c5.26,17.06,8.74,34.76,14.46,51.69.53,1.56-.89,2.85,2.11,2.35v-58ZM523.67,342.75c4.21-4.18,5.18-10.41,4.27-16.11-1.34-8.4-13.17-5.85-18.8-3.42l-.67,25.91c1.47,2.55,13.55-4.74,15.2-6.38ZM602,351.09c8.79-1.27,22.52-10.65,22.06-20.49-.52-11.21-15.01-9.74-22.06-6.01v26.5ZM472,369.08c-1.39-6.09-2.21-13.55-4.09-19.4-.36-1.11-.33-2.42-1.89-2.59-.16,3.23-7.27,19.77-6.02,21l12,1ZM585,367.08l-21.97,4.04,2.11,10.83,19.86-1.37c.37-3.6.1-10.44,0-13.5Z"/>
  <path d="M0,296.09l53.01-6.55-.94,17.12-35.06,4.44-1,24.99,24.86-4.14,4.62-20.88,14.94-3.87,20.59,48.88,2.12-53.36c9.06-4.93,22.82-7.68,33.35-6.63,27.54,2.75,27.25,37.27,8.53,51.49,3.13,2.89,6.27,6.06,7,10.49l18.56-51.86,16.24,2.05,9.17,25.81c3.94-28.64,41.66-31.37,58-10.99-.28-13.58,7.34-27.64,21.77-29.74,21.46-3.13,35.99,11.44,31.75,32.75-1.46,2.47-15.01,3.21-18.51,3.98-1.03-.94,7.06-12.19-.48-18.02-10.68-8.25-23.44,6.19-14.34,19.34s26.57,17.85,27.73,37.33c1.66,28.03-25.83,38.74-45.82,20.69l10.34-13.83,4.24,3.32c8.85,5.07,15.2-.18,13.1-10.11-1.61-7.6-12.52-14.41-17.76-19.72,3.72,33.42-24.56,50.86-53,33,.73,2,1.64,3.93,1.64,3.93l-14.87,10.79s-5.11-12.8-7.95-18.55l-26.67-1.01-6.3,16.69s-15.18,1.75-23.85,3.14c.42-13.28,8.03-41.83-14.37-37.85l-1.64,2.36-.51,32.57-13.99,6.95s-.65-4.83-1.5-7.02l-3.48.05c-1.78-3.23-6.21-19.28-9.12-19.82l-22.41,3.25c-.95,4.24-4.17,13.83-4.17,13.83-4.6.02-11.99.82-15.95,1.4l7.66-41.7-18.39,4.12-.13,39.87-17.01,3v-102ZM100,342.09c10.96-.82,24.79-13.9,18.87-25.37-4.06-7.87-13.05-4.49-18.87-2.63v28ZM204.77,327.28c-13.58,1.89-14.59,18.74-10.56,29.1,8.03,20.62,38.63,23.8,34.71-5.71-1.43-10.77-12.19-25.05-24.15-23.39ZM164,359.08l-6.99-20.99-6.01,21.99,13-1ZM63.66,357.56l-1.34-3.29-6.3-15.18-5.01,19.99,12.65-1.52Z"/>
  <path d="M305,384.09l20.86,18.71-.86,46.3c29.87-2.59,55.75-20.02,71.67-44.9l19.36,4.45c-17.52,34.92-51.83,56.75-90.98,59.5l-.19,24.81-21.85,6.14s1.02-20.27.86-30.86c-42.59-5.01-79.19-34.07-93.86-74.13l20.05-1.53c13.62,30.38,42,51.65,74.95,56.53v-65Z"/>
  <path d="M305,258.09c-14.69,1.77-27.61,7.65-40.32,15.18-14.66,8.69-27.21,22.22-34.81,38.37l-15.88-5.56s4.33-12.12,15.98-27.52c17.41-23.02,45.8-37.98,75.09-39.91,0-3.59.93-16.75.93-21.56,4.81-.96,20.01-3.52,20.01-3.52,0,0-.71,16.46.12,24.39,30.13,4.45,58.63,18.82,78.39,42.12,1.43,1.69,10.8,15.03,10.8,15.03,0,0-11.47,1.02-19.6,8.23-13.73-24.91-42.06-43.75-70.72-45.24v40.5c-15.1,8.22-20,19.44-20,19.44v-59.94Z"/>
</svg>